<svg width="17" height="16" viewBox="0 0 17 16" fill="none" xmlns="http://www.w3.org/2000/svg">
<path d="M10.2015 11.0453C10.3392 11.1086 10.4943 11.123 10.6413 11.0863C10.7883 11.0496 10.9184 10.9639 11.0101 10.8433L11.2468 10.5333C11.371 10.3677 11.5321 10.2333 11.7172 10.1408C11.9023 10.0482 12.1065 10 12.3135 10H14.3135C14.6671 10 15.0062 10.1405 15.2563 10.3905C15.5063 10.6406 15.6468 10.9797 15.6468 11.3333V13.3333C15.6468 13.687 15.5063 14.0261 15.2563 14.2761C15.0062 14.5262 14.6671 14.6667 14.3135 14.6667C11.1309 14.6667 8.07863 13.4024 5.8282 11.152C3.57776 8.90151 2.31348 5.84927 2.31348 2.66667C2.31348 2.31305 2.45395 1.97391 2.704 1.72386C2.95405 1.47381 3.29319 1.33334 3.64681 1.33334H5.64681C6.00043 1.33334 6.33957 1.47381 6.58962 1.72386C6.83967 1.97391 6.98014 2.31305 6.98014 2.66667V4.66667C6.98014 4.87366 6.93195 5.07781 6.83938 5.26295C6.74681 5.44809 6.6124 5.60914 6.44681 5.73334L6.13481 5.96734C6.01242 6.06079 5.92616 6.19373 5.89067 6.34357C5.85518 6.49341 5.87267 6.65092 5.94014 6.78934C6.85126 8.63991 8.34976 10.1365 10.2015 11.0453Z" stroke="#00D0A6" stroke-width="1.33333" stroke-linecap="round" stroke-linejoin="round"/>
</svg>
